<svg xmlns="http://www.w3.org/2000/svg" width="303" height="58" viewBox="0 0 303 58" fill="none"><g clip-path="url(#clip0_56_38)"><path d="M216.641 45.913C216.641 46.9747 213.182 47.8318 208.906 47.8318C204.63 47.8318 201.171 46.9747 201.171 45.913C201.171 44.8514 204.63 43.9943 208.906 43.9943C213.182 43.9943 215.893 45.1728 216.641 45.913Z" fill="#E6215A"></path><path d="M238.632 45.913C238.632 47.1013 235.192 48.0655 230.945 48.0655C226.699 48.0655 223.259 47.1013 223.259 45.913C223.259 44.7248 226.699 43.7606 230.945 43.7606C235.192 43.7606 238.632 44.7248 238.632 45.913Z" fill="#E6215A"></path><path d="M220.363 50.3348C220.363 51.2699 217.72 52.0296 214.455 52.0296C211.189 52.0296 208.546 51.2699 208.546 50.3348C208.546 49.3998 211.189 48.6401 214.455 48.6401C217.72 48.6401 220.363 49.3998 220.363 50.3348Z" fill="#E6215A"></path><path d="M229.342 51.5329C229.342 52.3413 227.826 52.9938 225.95 52.9938C224.075 52.9938 222.559 52.3413 222.559 51.5329C222.559 50.7245 224.075 50.0719 225.95 50.0719C227.826 50.0719 229.342 50.7245 229.342 51.5329Z" fill="#E6215A"></path><path d="M220.625 53.1984C220.625 54.1821 219.226 54.9905 217.496 54.9905C215.766 54.9905 214.367 54.1918 214.367 53.1984C214.367 52.2049 215.766 51.4062 217.496 51.4062C219.226 51.4062 220.625 52.2049 220.625 53.1984Z" fill="#E6215A"></path><path d="M226.543 55.5456C226.543 56.5293 224.522 57.3377 222.015 57.3377C219.508 57.3377 217.486 56.539 217.486 55.5456C217.486 54.5521 219.508 53.7535 222.015 53.7535C224.522 53.7535 226.543 54.5521 226.543 55.5456Z" fill="#E6215A"></path><path d="M233.744 55.5456C233.744 56.2177 232.636 56.7728 231.275 56.7728C229.915 56.7728 228.807 56.2274 228.807 55.5456C228.807 54.8638 229.915 54.3184 231.275 54.3184C232.636 54.3184 233.744 54.8638 233.744 55.5456Z" fill="#E6215A"></path><path d="M238.437 51.0556C238.437 51.5815 237.203 52.0101 235.677 52.0101C234.152 52.0101 232.918 51.5815 232.918 51.0556C232.918 50.5296 234.152 50.1011 235.677 50.1011C237.203 50.1011 238.437 50.5296 238.437 51.0556Z" fill="#E6215A"></path><path d="M234.56 53.7632C234.599 54.3769 233.899 54.9223 232.995 54.9905C232.092 55.0586 231.314 54.6106 231.275 53.997C231.237 53.3834 231.936 52.838 232.84 52.7698C233.744 52.7016 234.521 53.1496 234.56 53.7632Z" fill="#E6215A"></path><path d="M219.002 56.7728C219.002 57.4448 217.895 58 216.534 58C215.174 58 214.066 57.4546 214.066 56.7728C214.066 56.091 215.174 55.5456 216.534 55.5456C217.895 55.5456 219.002 56.091 219.002 56.7728Z" fill="#E6215A"></path><path d="M211.462 48.6401C211.462 49.692 209.635 50.5394 207.37 50.5394C205.106 50.5394 203.279 49.692 203.279 48.6401C203.279 47.5883 205.106 46.7409 207.37 46.7409C209.635 46.7409 211.462 47.5883 211.462 48.6401Z" fill="#E6215A"></path><path d="M236.455 49.1466C236.455 50.2083 233.812 51.0654 230.547 51.0654C227.282 51.0654 224.638 50.2083 224.638 49.1466C224.638 48.085 227.282 47.2279 230.547 47.2279C233.812 47.2279 236.455 48.085 236.455 49.1466Z" fill="#E6215A"></path><path d="M213.337 52.7698C213.337 53.7145 211.18 54.4742 208.517 54.4742C205.855 54.4742 203.697 53.7145 203.697 52.7698C203.697 51.825 205.855 51.0653 208.517 51.0653C211.18 51.0653 213.337 51.825 213.337 52.7698Z" fill="#E6215A"></path><path d="M234.191 3.47705L233.151 9.75917L232.714 12.0188L225.921 13.8596L231.343 19.0996L230.673 22.5377L219.799 21.1839L223.229 3.47705L234.191 3.47705Z" fill="#E6215A"></path><path d="M239.594 22.8006C238.777 19.7716 237.096 17.4341 234.346 15.8562C232.092 14.5608 229.662 14.0252 227.097 13.8888C225.766 13.8206 224.434 13.9083 223.113 14.0836C219.906 14.5316 217.02 15.7101 214.493 17.736C211.685 20.0053 209.518 22.7909 207.847 25.9855C206.719 28.1477 205.942 30.4268 205.291 32.7546C204.514 35.5499 204.067 38.4037 203.94 41.2964C203.882 42.5236 203.979 43.7605 204.018 44.9975C204.028 45.3091 204.057 45.6111 204.076 45.913L216.631 45.913C216.34 45.2702 216.223 44.5884 216.136 43.8871C215.902 42.2314 216.097 40.5951 216.233 38.9588C216.408 36.9232 216.787 34.9168 217.311 32.9397C217.865 30.8359 218.662 28.8295 219.848 27.0082C220.392 26.1803 221.004 25.4304 221.82 24.846C222.977 24.0181 224.269 23.8136 225.63 24.0473C226.543 24.1934 227.184 24.7486 227.573 25.6057C228.001 26.5602 228.088 27.5731 228.156 28.586C228.176 28.8393 228.156 29.0925 228.156 29.3555C228.049 33.076 227.593 36.7479 226.465 40.3127C225.95 41.9392 225.251 43.5073 224.337 44.9585C224.327 44.978 224.318 44.9975 224.298 45.0072L229.351 45.0072L229.351 45.9227L236.348 45.9227C236.639 45.3481 236.912 44.754 237.174 44.1404C239.215 39.251 240.216 34.1182 240.284 28.8198C240.322 26.7842 239.982 24.3395 239.574 22.8104" fill="#E6215A"></path><path d="M114.88 15.5349L114.88 24.622L106.309 24.622L102.179 45.9228L91.0331 45.9228L96.9219 15.5446L106.202 15.5446L106.367 17.1516C108.369 16.1485 110.41 15.5446 111.887 15.5446L114.87 15.5446L114.88 15.5349Z" fill="white"></path><path d="M59.2571 26.8719L57.1095 37.9654L57.1095 45.9033L46.4786 45.9033L46.4786 35.3454L47.6836 29.1412C47.6836 29.1412 47.6836 29.1218 47.6836 29.112C48.2861 25.7615 48.0626 25.294 47.0325 25.2161C46.0996 25.1382 44.8947 25.7518 43.8549 26.4531L40.0845 45.9033L28.9483 45.9033L37.8495 -9.65416e-07L46.4786 -5.88227e-07L46.4786 12.9441L44.1173 17.8529C44.6226 17.4731 45.1668 17.1224 45.7304 16.8108C49.8409 14.5122 55.2729 13.8888 57.8966 16.1582C60.8896 18.749 59.879 23.6967 59.2571 26.8719Z" fill="white"></path><path d="M82.0736 15.4764C80.4897 15.0479 76.9039 14.3271 72.9392 15.7491C67.5946 17.6678 65.1458 22.1871 63.8825 24.5149C62.6776 26.7355 60.977 30.8846 61.3657 36.2512C61.803 42.3483 65.1944 46.6045 69.4118 46.6045C72.6088 46.6045 75.1451 45.2215 76.9622 43.7118L76.9622 45.9033L87.5251 45.9033L87.5251 37.9946L90.3334 23.5311L90.3334 15.5251L82.0736 15.4764ZM76.6998 36.0272C74.426 38.2284 71.8703 38.4719 72.8809 32.0339C73.9304 25.3038 76.0779 23.8331 77.0108 23.9694C77.7396 24.0668 78.6045 24.2714 78.964 24.359L76.6998 36.0175L76.6998 36.0272Z" fill="white"></path><path d="M138.027 15.5251L136.161 24.6123L130.923 24.6123L126.793 45.913L115.657 45.913L119.787 24.6123L117.416 24.6123L117.416 15.5251L121.546 15.5251L123.538 5.23999L133.392 5.23999L133.392 11.8825L132.682 15.5251L138.027 15.5251Z" fill="white"></path><path d="M28.3944 14.0641C26.4898 13.7525 23.5745 13.4018 20.9897 13.6843C16.7432 14.1421 11.8358 20.7748 11.8358 29.0925C11.8358 37.4102 16.9472 37.4979 25.1293 36.0175L23.0887 46.5364C22.1752 46.8091 12.3995 49.6044 5.43204 43.6437C-1.87548 37.381 0.0777373 26.7745 0.738524 23.1708C1.07864 21.3592 3.14844 10.0903 12.8756 5.3958C16.199 3.78875 19.3377 3.47708 21.359 3.44786L21.359 -4.26887e-07L31.125 0L28.3944 14.0641Z" fill="white"></path><path d="M298.102 15.6907C290.095 12.5253 278.512 17.2295 275.665 28.9367C272.818 40.6438 277.278 46.7896 285.353 46.7896C292.622 46.7896 297.743 44.4326 298.685 43.9651L296.761 36.446C287.258 39.1049 286.189 37.4102 286.014 35.0143C306.11 35.248 305.896 18.7587 298.112 15.6907M292.321 26.1998C291.028 28.5471 286.869 27.953 286.646 27.914C286.675 27.4465 286.927 24.4272 289.192 23.161C289.425 23.0344 291.038 22.1286 292.039 22.8688C292.942 23.5311 292.884 25.1771 292.321 26.1998Z" fill="white"></path><path d="M258.358 21.0962L253.548 45.913L242.402 45.913L248.3 15.5349L257.571 15.5349L257.571 20.7846L258.358 21.0962Z" fill="white"></path><path d="M272.72 26.8719L270.573 37.9654L270.573 45.9033L257.892 45.9033L261.137 29.151C261.137 29.151 261.137 29.1315 261.137 29.1218C261.74 25.7713 261.516 25.3038 260.486 25.2259C259.553 25.1479 258.348 25.7615 257.309 26.4628L253.373 21.5248L257.571 17.8626C258.076 17.4828 258.62 17.1322 259.184 16.8205C263.294 14.5219 268.727 13.8986 271.35 16.1679C274.343 18.7587 273.333 23.7065 272.711 26.8816" fill="white"></path><path d="M188.217 15.5349L188.217 24.622L179.647 24.622L175.517 45.9228L164.371 45.9228L170.26 15.5446L179.54 15.5446L179.705 17.1516C181.707 16.1485 183.747 15.5446 185.224 15.5446L188.208 15.5446L188.217 15.5349Z" fill="white"></path><path d="M160.241 15.6907C152.234 12.5253 140.641 17.2295 137.803 28.9367C134.956 40.6438 139.416 46.7896 147.492 46.7896C153.409 46.7896 157.899 45.2312 159.872 44.3936L157.909 36.7187C149.318 38.9881 148.318 37.3226 148.152 35.0143C168.248 35.248 168.034 18.7587 160.251 15.6907M154.459 26.1998C153.167 28.5471 149.007 27.953 148.784 27.914C148.813 27.4465 149.066 24.4272 151.33 23.161C151.563 23.0344 153.176 22.1286 154.177 22.8688C155.081 23.5311 155.023 25.1771 154.459 26.1998Z" fill="white"></path></g><defs><clipPath id="clip0_56_38"><rect width="58" height="303" fill="white" transform="translate(303) rotate(90)"></rect></clipPath></defs></svg>